<?xml version="1.0" encoding="utf-8"?>
<!-- Generator: Adobe Illustrator 26.2.1, SVG Export Plug-In . SVG Version: 6.00 Build 0)  -->
<svg version="1.1" id="Layer_1" xmlns="http://www.w3.org/2000/svg" xmlns:xlink="http://www.w3.org/1999/xlink" x="0px" y="0px"
	 viewBox="0 0 123.3 97.5" style="enable-background:new 0 0 123.3 97.5;" xml:space="preserve">
<style type="text/css">
	.st0{fill:#FFFFFF;}
	.st1{fill:#EFEFEF;}
	.st2{fill:#DDDDDD;}
	.st3{fill:#A0A0A0;}
	.st4{fill:#4D4F53;}
	.st5{fill:#F24405;}
</style>
<polygon class="st0" points="68.3,10.9 86.3,10.9 107.9,43.6 68.3,43.6 "/>
<path class="st1" d="M112.9,46.2L89,9.8c-0.6-0.9-1.6-1.4-2.7-1.4H13.7c-1.8,0-3.2,1.5-3.2,3.2v67.6c0,1.8,1.5,3.2,3.2,3.2h96
	c1.8,0,3.2-1.5,3.2-3.2V46.8C112.9,46.8,112.9,46.2,112.9,46.2z M102.4,40.6H72.9V14.5h12.2L102.4,40.6z"/>
<path class="st2" d="M10.4,79.8c0,1.4,1.5,2.5,3.2,2.5h96c1.8,0,3.2-1.1,3.2-2.5V54.6H10.4V79.8z"/>
<g>
	<circle class="st3" cx="34.3" cy="79.1" r="12.3"/>
	<path class="st4" d="M34.3,94.3c-8.4,0-15.2-6.8-15.2-15.2S26,64,34.3,64s15.2,6.8,15.2,15.2S42.7,94.3,34.3,94.3z M34.3,69.7
		c-5.2,0-9.4,4.2-9.4,9.4c0,5.2,4.2,9.4,9.4,9.4s9.4-4.2,9.4-9.4C43.7,74,39.5,69.7,34.3,69.7z"/>
</g>
<g>
	<circle class="st3" cx="90.9" cy="79.1" r="12.3"/>
	<path class="st4" d="M90.9,94.3c-8.4,0-15.2-6.8-15.2-15.2S82.5,64,90.9,64S106,70.8,106,79.1S99.2,94.3,90.9,94.3z M90.9,69.7
		c-5.2,0-9.4,4.2-9.4,9.4c0,5.2,4.2,9.4,9.4,9.4s9.4-4.2,9.4-9.4C100.3,74,96.1,69.7,90.9,69.7z"/>
</g>
<g>
	<path class="st5" d="M58.5,33.4c-0.1-0.3-0.3-0.6-0.6-0.8c-0.9-1-1.9-1.8-3-2.5c-0.2-0.1-0.2-0.1-0.4,0c-1.4,1.5-2.9,2.9-4.4,4.2
		c-4.4,4-9,7.7-13.7,11.2c-2.8,2.1-5.7,4.1-8.7,5.9c-0.2,0.1-0.3,0.2-0.5,0.3c0.1,0,0.2,0,0.3-0.1c1.6-0.6,3.2-1.2,4.8-1.9
		c8.8-3.8,17.1-8.5,25-13.8c0.3-0.2,0.6-0.4,0.9-0.7C58.7,34.8,58.8,34.1,58.5,33.4z"/>
	<path class="st5" d="M35.3,45.5C35.3,45.5,35.3,45.5,35.3,45.5c0.1,0,0.2,0,0.2-0.1c1-0.7,2-1.5,3-2.3c3.8-3.1,7.5-6.3,10.8-10
		c0.9-1,1.7-2,2.4-3.2c0.3-0.5,0.4-0.9,0.3-1.5c-0.1-0.7-0.4-1.2-0.9-1.6c-0.6-0.6-1.3-1.1-2-1.5c-0.2-0.1-0.2-0.1-0.3,0.1
		c-0.4,0.9-0.8,1.9-1.3,2.8c-3.1,5.8-6.9,11-11.2,16C36.1,44.7,35.7,45.1,35.3,45.5z"/>
	<path class="st5" d="M39.4,39.8c1.6-2,3-4.2,4.1-6.4c1.1-2.2,2.1-4.5,2.4-7.1c0.1-1.2,0-2.3-0.7-3.2c-0.4-0.6-0.9-1.1-1.5-1.5
		c-0.4-0.3-0.8-0.5-1.2-0.8C42.1,27.2,41.2,33.6,39.4,39.8C39.4,39.8,39.4,39.8,39.4,39.8z"/>
	<path class="st5" d="M40.2,34.4c0.2-1.7,0.3-3.4,0.2-5.1c-0.1-2.2-0.3-4.4-0.7-6.5c-0.3-1.9-1.1-3.5-2.5-4.8
		c-0.4-0.4-0.9-0.8-1.5-1.1c2,6,3.4,12.1,4.4,18.4C40.1,34.9,40.1,34.7,40.2,34.4z"/>
	<path class="st5" d="M38.4,28.6c0-0.1,0-0.1-0.1-0.2c-0.4-1.1-0.9-2.2-1.4-3.3c-1.3-2.9-2.9-5.7-5-8.2c-1.1-1.3-2.3-2.5-3.8-3.3
		c-0.4-0.3-0.9-0.5-1.4-0.7c2.2,2.5,4.1,5.1,6.1,7.7C34.7,23.3,36.5,25.9,38.4,28.6z"/>
</g>
</svg>
