<?xml version="1.0" encoding="UTF-8"?><svg xmlns="http://www.w3.org/2000/svg" viewBox="0 0 278.72 41.39"><defs><style>.d{fill:#011c26;}</style></defs><g id="a"/><g id="b"><g id="c"><g><rect class="d" x="45.42" y="3.79" width="5.02" height="28.39"/><path class="d" d="M70.29,11.98c-1.52-.92-3.33-1.37-5.41-1.37s-3.88,.46-5.41,1.37c-1.53,.92-2.71,2.2-3.54,3.85-.84,1.65-1.25,3.58-1.25,5.78s.42,4.12,1.25,5.77c.84,1.64,2.02,2.92,3.54,3.84,1.52,.92,3.33,1.37,5.41,1.37s3.88-.46,5.41-1.37c1.53-.92,2.71-2.2,3.54-3.84,.84-1.65,1.25-3.57,1.25-5.77s-.42-4.13-1.25-5.78c-.84-1.65-2.02-2.94-3.54-3.85Zm-.85,13.14c-.37,1.05-.94,1.89-1.7,2.52s-1.7,.94-2.83,.94-2.11-.31-2.88-.94-1.33-1.46-1.71-2.52-.56-2.23-.56-3.52,.19-2.48,.56-3.54c.37-1.06,.94-1.9,1.71-2.53,.76-.63,1.72-.94,2.88-.94s2.07,.31,2.83,.94c.76,.63,1.32,1.47,1.7,2.53,.38,1.06,.56,2.24,.56,3.54s-.19,2.47-.56,3.52Z"/><path class="d" d="M93.64,14.41h-.28c-.25-.52-.62-1.07-1.1-1.66s-1.12-1.09-1.93-1.51c-.81-.42-1.84-.63-3.08-.63-1.64,0-3.12,.42-4.45,1.25-1.33,.84-2.39,2.06-3.17,3.67-.78,1.61-1.17,3.59-1.17,5.93s.39,4.25,1.17,5.79,1.83,2.69,3.16,3.47c1.33,.77,2.81,1.16,4.44,1.16,1.22,0,2.23-.18,3.04-.55,.81-.37,1.46-.83,1.96-1.37,.49-.54,.87-1.08,1.13-1.59h.25v4.04c0,1.57-.47,2.7-1.4,3.39-.93,.69-2.11,1.03-3.54,1.03-1.01,0-1.84-.14-2.5-.41-.66-.27-1.19-.62-1.57-1.03-.39-.41-.68-.83-.89-1.24l-4.52,1.09c.3,.99,.85,1.89,1.64,2.7,.79,.81,1.83,1.46,3.12,1.95s2.84,.73,4.64,.73c1.91,0,3.62-.3,5.13-.89,1.51-.59,2.69-1.48,3.56-2.68,.87-1.19,1.3-2.7,1.3-4.52V10.89h-4.95v3.52Zm-.58,10.52c-.39,.97-.96,1.71-1.71,2.23-.75,.52-1.65,.78-2.72,.78s-2.03-.27-2.78-.81c-.75-.54-1.32-1.3-1.71-2.27-.38-.98-.58-2.11-.58-3.42s.19-2.43,.57-3.45c.38-1.01,.94-1.81,1.69-2.39,.75-.58,1.68-.87,2.8-.87s1.99,.28,2.74,.84c.74,.56,1.31,1.34,1.69,2.35,.38,1.01,.58,2.18,.58,3.52s-.19,2.52-.58,3.49Z"/><rect class="d" x="103.74" y="10.89" width="5.02" height="21.3"/><path class="d" d="M106.27,2.42c-.79,0-1.48,.27-2.05,.8-.57,.53-.86,1.17-.86,1.92s.29,1.39,.86,1.93,1.26,.8,2.05,.8,1.49-.27,2.06-.8,.85-1.17,.85-1.92-.28-1.39-.85-1.93c-.57-.54-1.25-.8-2.06-.8Z"/><path class="d" d="M125.22,20.04l-3.63-.78c-1.08-.25-1.86-.57-2.32-.96-.47-.39-.7-.89-.69-1.51,0-.72,.34-1.31,1.05-1.76,.71-.45,1.58-.68,2.63-.68,.78,0,1.43,.12,1.97,.37,.54,.25,.96,.58,1.28,.98,.32,.41,.54,.84,.67,1.3l4.58-.5c-.34-1.81-1.23-3.25-2.67-4.31-1.44-1.06-3.4-1.59-5.9-1.59-1.7,0-3.2,.27-4.5,.8s-2.31,1.28-3.04,2.25-1.08,2.1-1.07,3.42c0,1.55,.48,2.83,1.46,3.85,.98,1.01,2.49,1.73,4.53,2.16l3.63,.76c.98,.21,1.7,.52,2.17,.92s.7,.9,.7,1.51c0,.72-.36,1.33-1.09,1.82-.73,.49-1.68,.74-2.88,.74s-2.09-.25-2.81-.74c-.72-.49-1.19-1.21-1.41-2.18l-4.89,.47c.31,1.96,1.25,3.49,2.84,4.58,1.59,1.1,3.69,1.64,6.29,1.64,1.77,0,3.35-.29,4.71-.86,1.37-.57,2.44-1.37,3.21-2.39,.77-1.02,1.16-2.2,1.17-3.54,0-1.52-.51-2.76-1.49-3.7-.98-.94-2.48-1.63-4.5-2.07Z"/><path class="d" d="M144.93,28.18c-.26,.05-.55,.07-.87,.07-.42,0-.79-.06-1.14-.19-.34-.13-.62-.37-.83-.73s-.31-.87-.31-1.55V14.77h4.2v-3.88h-4.2V5.79h-5.02v5.1h-3.02v3.88h3.02v11.84c0,1.33,.28,2.44,.87,3.33,.59,.89,1.38,1.54,2.39,1.96,1.01,.42,2.14,.61,3.4,.58,.71-.02,1.31-.08,1.81-.19,.49-.11,.88-.21,1.14-.3l-.85-3.92c-.14,.04-.34,.08-.6,.12Z"/><path class="d" d="M152.71,2.42c-.8,0-1.48,.27-2.05,.8-.57,.53-.86,1.17-.86,1.92s.29,1.39,.86,1.93,1.26,.8,2.05,.8,1.49-.27,2.06-.8,.85-1.17,.85-1.92-.28-1.39-.85-1.93c-.57-.54-1.25-.8-2.06-.8Z"/><rect class="d" x="150.19" y="10.89" width="5.02" height="21.3"/><polygon class="d" points="179.25 10.89 173.38 10.89 165.73 19.44 165.38 19.44 165.38 3.79 160.36 3.79 160.36 32.18 165.38 32.18 165.38 25.03 167.21 23.07 173.73 32.18 179.73 32.18 170.99 20.08 179.25 10.89"/><path class="d" d="M185.67,26.42c-.84,0-1.56,.3-2.16,.89-.6,.59-.9,1.3-.89,2.14,0,.85,.29,1.57,.89,2.16,.6,.59,1.32,.89,2.16,.89,.54,0,1.05-.14,1.5-.41,.46-.27,.83-.64,1.11-1.1,.28-.46,.43-.98,.44-1.54,0-.83-.32-1.54-.92-2.14-.61-.59-1.32-.89-2.13-.89Z"/><path class="d" d="M200.54,15.49c.78-.55,1.68-.83,2.7-.83,1.21,0,2.18,.34,2.9,1.03s1.19,1.55,1.38,2.57h4.8c-.11-1.53-.56-2.88-1.36-4.03s-1.86-2.04-3.2-2.68c-1.33-.63-2.87-.95-4.6-.95-2.08,0-3.88,.46-5.4,1.39s-2.7,2.22-3.53,3.88c-.83,1.66-1.25,3.57-1.25,5.73s.41,4.05,1.23,5.71c.82,1.65,1.99,2.94,3.51,3.88s3.34,1.4,5.47,1.4c1.78,0,3.34-.33,4.66-.98,1.32-.65,2.37-1.56,3.13-2.72,.77-1.16,1.21-2.49,1.33-4h-4.8c-.15,.77-.42,1.42-.82,1.96s-.89,.95-1.48,1.23c-.59,.28-1.25,.42-1.99,.42-1.04,0-1.95-.28-2.72-.84-.77-.56-1.37-1.36-1.79-2.4-.43-1.04-.64-2.29-.64-3.74s.21-2.66,.64-3.69c.43-1.03,1.03-1.81,1.81-2.36Z"/><rect class="d" x="216.46" y="3.79" width="5.02" height="28.39"/><path class="d" d="M229.16,2.42c-.79,0-1.48,.27-2.05,.8-.57,.53-.86,1.17-.86,1.92s.29,1.39,.86,1.93,1.26,.8,2.05,.8,1.49-.27,2.06-.8,.85-1.17,.85-1.92-.28-1.39-.85-1.93c-.57-.54-1.25-.8-2.06-.8Z"/><rect class="d" x="226.63" y="10.89" width="5.02" height="21.3"/><path class="d" d="M243.44,15.49c.78-.55,1.68-.83,2.7-.83,1.21,0,2.18,.34,2.9,1.03s1.19,1.55,1.38,2.57h4.8c-.11-1.53-.56-2.88-1.36-4.03s-1.86-2.04-3.2-2.68c-1.33-.63-2.87-.95-4.6-.95-2.08,0-3.88,.46-5.4,1.39s-2.7,2.22-3.53,3.88c-.83,1.66-1.25,3.57-1.25,5.73s.41,4.05,1.23,5.71c.82,1.65,1.99,2.94,3.51,3.88s3.34,1.4,5.47,1.4c1.78,0,3.34-.33,4.66-.98,1.32-.65,2.37-1.56,3.13-2.72,.77-1.16,1.21-2.49,1.33-4h-4.8c-.15,.77-.42,1.42-.82,1.96s-.89,.95-1.48,1.23c-.59,.28-1.25,.42-1.99,.42-1.04,0-1.95-.28-2.72-.84-.77-.56-1.37-1.36-1.79-2.4-.43-1.04-.64-2.29-.64-3.74s.21-2.66,.64-3.69c.43-1.03,1.03-1.81,1.81-2.36Z"/><polygon class="d" points="272.72 32.18 278.72 32.18 269.98 20.08 278.24 10.89 272.37 10.89 264.72 19.44 264.37 19.44 264.37 3.79 259.35 3.79 259.35 32.18 264.37 32.18 264.37 25.03 266.2 23.07 272.72 32.18"/><path class="d" d="M36.29,12.22c-.12,.06-.2,.1-.28,.15-5.44,3.14-10.88,6.29-16.32,9.43-.17,.1-.24,.21-.24,.41,0,6.29,0,12.57,0,18.86,0,.1,.01,.2,.02,.32,.13-.07,.22-.12,.31-.17,5.41-3.13,10.82-6.26,16.24-9.38,.21-.12,.28-.24,.28-.48,0-6.25,0-12.51,0-18.76v-.37Z"/><path class="d" d="M16.49,21.83c-2.31-1.33-4.61-2.66-6.92-3.99-.07-.04-.14-.07-.25-.11v4.62c-.12-.05-.2-.09-.28-.13-.73-.37-1.46-.76-2.19-1.12-.2-.1-.26-.21-.26-.43,0-1.43,0-2.85,0-4.28,0-.21-.07-.33-.25-.44-2.02-1.16-4.04-2.32-6.06-3.49-.08-.04-.16-.08-.26-.13,0,.08-.01,.13-.01,.18C0,18.81,0,25.11,0,31.41c0,.19,.08,.27,.23,.36,5.41,3.12,10.83,6.25,16.24,9.38,.07,.04,.15,.07,.25,.12,0-.09,.01-.13,.01-.17,0-6.3,0-12.59,0-18.89,0-.2-.09-.29-.25-.38Z"/><path class="d" d="M35.37,9.95c-.13-.08-.21-.13-.29-.17-2.34-1.33-4.68-2.66-7.02-4.01-.24-.14-.4-.14-.64,0-5.55,3.22-11.11,6.43-16.67,9.64-.09,.05-.18,.12-.25,.16,2.44,1.41,4.88,2.81,7.3,4.22,.21,.12,.35,.11,.56,0,4.63-2.68,9.26-5.35,13.88-8.03,1.02-.59,2.05-1.19,3.12-1.81Z"/><path class="d" d="M7.28,13.72c.18,.1,.28,.04,.42-.04,5.4-3.12,10.8-6.24,16.2-9.37,.27-.15,.53-.31,.83-.48-.07-.05-.09-.07-.12-.09-2.11-1.22-4.23-2.45-6.34-3.68-.2-.11-.31-.03-.45,.05C12.25,3.33,6.68,6.55,1.1,9.77c-.09,.05-.18,.12-.29,.18,.06,.04,.09,.07,.13,.09,2.11,1.22,4.23,2.45,6.34,3.68Z"/></g></g></g></svg>