<svg width="1923" height="360" viewBox="0 0 1923 360" fill="none" xmlns="http://www.w3.org/2000/svg">
<path d="M293.19 189.83C291.84 187.01 290.05 184.48 288.02 182.12C280.14 172.95 270.54 165.84 260.47 159.29C259 158.33 258.18 158.48 256.98 159.72C243.97 173.26 230.32 186.15 216.37 198.72C175.78 235.3 133.38 269.68 89.41 302.12C63.31 321.38 36.78 340 8.70997 356.34C7.20997 357.21 5.69997 358.08 3.96997 359.08C5.16997 359.32 5.87997 358.84 6.61997 358.59C21.69 353.38 36.55 347.63 51.18 341.29C132.39 306.11 209.29 263.16 282.47 213.49C285.28 211.58 288.04 209.59 290.41 207.12C295.26 202.06 296.21 196.13 293.18 189.82L293.19 189.83Z" fill="#F24405"/>
<path d="M79.1399 301.37L79.4699 301.7C80.0699 301.3 80.6899 300.92 81.2699 300.5C90.7999 293.75 100.15 286.76 109.28 279.48C144.76 251.2 178.76 221.32 209.18 187.55C217.4 178.42 224.9 168.73 231.38 158.28C233.98 154.09 235.13 149.5 234.61 144.54C233.97 138.48 230.75 133.79 226.69 129.57C221.16 123.81 214.45 119.63 207.77 115.38C206.19 114.37 205.78 114.83 205.16 116.3C201.44 125.06 197.31 133.63 192.83 142.03C164.37 195.31 129.23 243.94 89.7799 289.55C86.3099 293.56 82.6899 297.44 79.1399 301.38V301.37Z" fill="#F24405"/>
<path d="M117.07 248.25C131.47 229.46 144.52 209.8 155.3 188.71C165.86 168.07 174.61 146.79 177.01 123.43C178.12 112.68 176.66 102.54 170.22 93.49C166.33 88.01 161.56 83.43 156.19 79.44C152.65 76.81 148.99 74.38 145.26 72.38C142.26 132.5 133.52 191.53 116.37 249.02C116.49 248.89 116.8 248.6 117.06 248.26L117.07 248.25Z" fill="#F24405"/>
<path d="M123.91 198.88C125.59 183.15 126.26 167.39 125.87 151.56C125.36 131.23 123.2 111.11 119.59 91.08C116.48 73.79 109.04 58.96 96.3499 46.8C92.2299 42.86 87.7299 39.45 82.1599 36.97C100.68 92.39 113.76 148.79 122.84 206.73C123.26 203.7 123.66 201.3 123.92 198.88H123.91Z" fill="#F24405"/>
<path d="M107.6 145.32C107.37 144.64 107.15 143.96 106.9 143.28C102.99 132.93 98.75 122.72 94.12 112.67C81.68 85.71 67.4 59.85 48.14 37.03C37.98 25 26.65 14.25 12.97 6.21C8.98 3.87 4.87 1.76 0 0C20.29 22.96 38.3 47 55.93 71.34C73.55 95.68 90.54 120.45 107.6 145.32Z" fill="#F24405"/>
<path d="M389.636 73.46H373V271.902H389.636V73.46Z" fill="white"/>
<path d="M539.645 138.365C529.144 132.324 516.968 129.303 503.105 129.303C489.241 129.303 477.065 132.324 466.564 138.365C456.063 144.406 447.851 152.877 441.905 163.767C435.958 174.657 432.997 187.435 432.997 202.089C432.997 216.743 435.97 229.816 441.905 240.707C447.851 251.597 456.063 260.021 466.564 265.956C477.053 271.902 489.241 274.864 503.105 274.864C516.968 274.864 529.144 271.891 539.645 265.956C550.146 260.009 558.358 251.597 564.304 240.707C570.251 229.816 573.212 216.944 573.212 202.089C573.212 187.235 570.239 174.657 564.304 163.767C558.358 152.877 550.146 144.417 539.645 138.365ZM549.45 233.273C545.096 241.993 538.949 248.671 531.032 253.331C523.103 257.992 513.806 260.316 503.105 260.316C492.403 260.316 483.094 257.992 475.177 253.331C467.248 248.683 461.066 241.993 456.606 233.273C452.146 224.566 449.916 214.16 449.916 202.078C449.916 189.996 452.146 179.648 456.606 171.035C461.066 162.422 467.248 155.791 475.177 151.131C483.094 146.482 492.403 144.146 503.105 144.146C513.806 144.146 522.808 146.482 530.737 151.131C538.654 155.791 544.848 162.422 549.308 171.035C553.768 179.648 555.998 189.996 555.998 202.078C555.998 214.16 553.815 224.554 549.462 233.273H549.45Z" fill="white"/>
<path d="M729.474 158.411C724.92 149.703 717.982 142.671 708.685 137.315C699.376 131.97 688.191 129.291 675.118 129.291C662.045 129.291 651.355 132.017 641.255 137.456C631.156 142.907 623.132 150.671 617.198 160.77C611.251 170.87 608.29 183.152 608.29 197.606C608.29 212.059 611.263 224.094 617.198 234.288C623.144 244.494 631.156 252.316 641.255 257.756C651.355 263.207 662.646 265.92 675.118 265.92C687.589 265.92 699.034 263.348 708.237 258.192C717.451 253.048 724.33 246.217 728.884 237.698V255.821C728.884 274.828 724.082 289.341 714.478 299.334C704.874 309.328 691.353 314.33 673.926 314.33C665.407 314.33 657.089 312.797 648.972 309.729C640.854 306.661 632.335 301.258 623.427 293.541L616.006 305.717C624.713 314.036 633.928 319.97 643.639 323.545C653.337 327.108 663.637 328.89 674.539 328.89C689.583 328.89 702.408 325.917 713.003 319.982C723.598 314.036 731.669 305.422 737.214 294.143C742.76 282.852 745.532 269.189 745.532 253.142V132.241H729.486V158.387L729.474 158.411ZM722.194 227.327C717.534 235.256 711.304 241.238 703.482 245.296C695.659 249.355 686.999 251.384 677.489 251.384C667.979 251.384 659.319 249.355 651.497 245.296C643.674 241.238 637.385 235.244 632.63 227.327C627.876 219.41 625.504 209.499 625.504 197.618C625.504 185.736 627.876 175.837 632.63 167.909C637.385 159.992 643.662 154.045 651.497 150.081C659.319 146.116 667.979 144.134 677.489 144.134C686.999 144.134 695.659 146.116 703.482 150.081C711.304 154.045 717.546 159.992 722.194 167.909C726.843 175.837 729.179 185.736 729.179 197.618C729.179 209.499 726.843 219.41 722.194 227.327Z" fill="white"/>
<path d="M805.517 76.4214C802.143 76.4214 799.429 77.4125 797.352 79.3947C795.276 81.3768 794.238 83.8546 794.238 86.8161C794.238 89.9899 795.276 92.5148 797.352 94.3908C799.429 96.2786 802.154 97.2107 805.517 97.2107C808.88 97.2107 811.605 96.2786 813.682 94.3908C815.758 92.5148 816.797 89.9899 816.797 86.8161C816.797 83.8428 815.758 81.3768 813.682 79.3947C811.605 77.4125 808.88 76.4214 805.517 76.4214Z" fill="white"/>
<path d="M813.835 132.276H797.199V271.891H813.835V132.276Z" fill="white"/>
<path d="M957.909 207.434C951.373 201.889 942.17 198.031 930.277 195.848L902.054 190.503C893.736 188.922 887.742 186.444 884.085 183.082C880.415 179.719 878.586 175.46 878.586 170.304C878.586 161.986 881.701 155.555 887.943 150.989C894.184 146.435 902.644 144.158 913.345 144.158C921.262 144.158 928.743 145.597 935.775 148.464C942.807 151.343 949.19 155.154 954.936 159.897L963.254 146.824C956.918 141.479 949.438 137.22 940.825 134.046C932.212 130.884 922.855 129.291 912.755 129.291C901.665 129.291 892.308 131.226 884.686 135.085C877.064 138.943 871.318 144.099 867.46 150.529C863.602 156.971 861.667 163.944 861.667 171.472C861.667 180.781 864.64 188.356 870.575 194.196C876.522 200.036 885.524 204.048 897.606 206.231L925.828 211.576C935.338 213.168 941.816 215.693 945.284 219.15C948.741 222.619 950.488 227.516 950.488 233.852C950.488 241.969 947.373 248.411 941.131 253.166C934.89 257.921 925.238 260.292 912.165 260.292C903.847 260.292 896.072 258.759 888.851 255.691C881.619 252.623 873.855 248.022 865.537 241.875L857.219 255.243C865.537 261.578 874.103 266.428 882.916 269.802C891.73 273.165 901.381 274.852 911.882 274.852C929.899 274.852 943.715 270.947 953.319 263.124C962.924 255.302 967.726 245.155 967.726 232.672C967.726 221.38 964.457 212.968 957.921 207.422L957.909 207.434Z" fill="white"/>
<path d="M1042.27 92.4677H1025.63V132.276H993.258V146.836H1025.63V235.067C1025.63 248.34 1028.85 258.086 1035.29 264.328C1041.72 270.569 1051.18 273.684 1063.65 273.684C1066.62 273.684 1069.69 273.531 1072.86 273.236C1076.03 272.941 1078.5 272.386 1080.29 271.607V257.945C1078.69 258.346 1076.52 258.641 1073.75 258.841C1070.98 259.042 1068.4 259.136 1066.02 259.136C1058.29 259.136 1052.4 257.154 1048.35 253.19C1044.29 249.225 1042.26 242.889 1042.26 234.182V146.848H1080.29V132.288H1042.26V92.4795L1042.27 92.4677Z" fill="white"/>
<path d="M1135.85 132.276H1119.21V271.891H1135.85V132.276Z" fill="white"/>
<path d="M1127.53 76.4214C1124.15 76.4214 1121.44 77.4125 1119.36 79.3947C1117.29 81.3768 1116.25 83.8546 1116.25 86.8161C1116.25 89.9899 1117.29 92.5148 1119.36 94.3908C1121.44 96.2786 1124.16 97.2107 1127.53 97.2107C1130.89 97.2107 1133.62 96.2786 1135.69 94.3908C1137.77 92.5148 1138.81 89.9899 1138.81 86.8161C1138.81 83.8428 1137.77 81.3768 1135.69 79.3947C1133.62 77.4125 1130.89 76.4214 1127.53 76.4214Z" fill="white"/>
<path d="M1304.58 132.277H1284.07L1204.17 207.729V73.46H1187.54V271.891H1204.17V226.147L1231.2 200.603L1287.05 271.891H1307.55L1243.08 189.606L1304.58 132.277Z" fill="white"/>
<path d="M1384.18 163.909C1390.32 160.452 1397.45 158.706 1405.58 158.706C1412.11 158.706 1418.54 159.744 1424.89 161.82C1431.23 163.897 1437.56 167.118 1443.9 171.472L1456.07 145.928C1449.14 140.583 1441.51 136.477 1433.2 133.598C1424.88 130.731 1415.66 129.291 1405.56 129.291C1390.91 129.291 1378.04 132.312 1366.95 138.353C1355.86 144.394 1347.09 152.865 1340.66 163.755C1334.22 174.646 1331.01 187.424 1331.01 202.078C1331.01 216.732 1334.23 229.51 1340.66 240.4C1347.09 251.29 1355.86 259.761 1366.95 265.802C1378.04 271.843 1390.91 274.864 1405.56 274.864C1415.66 274.864 1424.88 273.424 1433.2 270.557C1441.51 267.69 1449.14 263.572 1456.07 258.228L1443.9 232.683C1437.56 237.037 1431.23 240.258 1424.89 242.335C1418.55 244.411 1412.11 245.45 1405.58 245.45C1397.46 245.45 1390.32 243.715 1384.18 240.246C1378.05 236.778 1373.34 231.834 1370.07 225.392C1366.81 218.962 1365.18 211.186 1365.18 202.078C1365.18 192.969 1366.81 185.194 1370.07 178.763C1373.34 172.333 1378.04 167.378 1384.18 163.909Z" fill="white"/>
<path d="M1521.72 73.46H1487.56V271.902H1521.72V73.46Z" fill="white"/>
<path d="M1578.76 69C1572.62 69 1567.76 70.7344 1564.2 74.2032C1560.63 77.6721 1558.85 82.1792 1558.85 87.7246C1558.85 93.2699 1560.63 98.1192 1564.2 101.682C1567.76 105.246 1572.61 107.027 1578.76 107.027C1584.9 107.027 1589.55 105.246 1593.32 101.682C1597.08 98.1192 1598.96 93.5649 1598.96 88.0195C1598.96 82.4741 1597.07 77.6721 1593.32 74.2032C1589.55 70.7344 1584.7 69 1578.76 69Z" fill="white"/>
<path d="M1595.98 132.276H1561.83V271.891H1595.98V132.276Z" fill="white"/>
<path d="M1682.14 163.909C1688.27 160.452 1695.4 158.706 1703.53 158.706C1710.06 158.706 1716.5 159.744 1722.84 161.82C1729.18 163.897 1735.51 167.118 1741.85 171.472L1754.03 145.928C1747.09 140.583 1739.47 136.477 1731.15 133.598C1722.83 130.731 1713.62 129.291 1703.52 129.291C1688.86 129.291 1675.99 132.312 1664.9 138.353C1653.81 144.394 1645.04 152.865 1638.61 163.755C1632.17 174.646 1628.96 187.424 1628.96 202.078C1628.96 216.732 1632.18 229.51 1638.61 240.4C1645.04 251.29 1653.81 259.761 1664.9 265.802C1675.99 271.843 1688.86 274.864 1703.52 274.864C1713.62 274.864 1722.83 273.424 1731.15 270.557C1739.47 267.69 1747.09 263.572 1754.03 258.228L1741.85 232.683C1735.51 237.037 1729.18 240.258 1722.84 242.335C1716.51 244.411 1710.06 245.45 1703.53 245.45C1695.41 245.45 1688.27 243.715 1682.14 240.246C1676 236.778 1671.29 231.834 1668.03 225.392C1664.76 218.962 1663.13 211.186 1663.13 202.078C1663.13 192.969 1664.76 185.194 1668.03 178.763C1671.29 172.333 1675.99 167.378 1682.14 163.909Z" fill="white"/>
<path d="M1862.45 189.311L1919.19 132.277H1878.79L1819.67 193.17V73.46H1785.51V271.891H1819.67V232.389L1838.98 212.484L1881.46 271.891H1922.16L1862.45 189.311Z" fill="white"/>
</svg>
